<svg xmlns="http://www.w3.org/2000/svg" viewBox="0 0 652 200" role="img" aria-label="NullID wordmark">
  
    <g transform="translate(12 12)">
      
    <g fill="rgba(214, 255, 98, 0.11)">
      <rect x="28" y="20" width="30" height="152" />
      <rect x="103" y="20" width="30" height="152" />
      <polygon points="52,20 82,20 108,172 78,172" />

      <rect x="152" y="68" width="26" height="104" />
      <rect x="218" y="68" width="26" height="104" />
      <rect x="178" y="144" width="40" height="28" />

      <rect x="274" y="26" width="22" height="146" />
      <rect x="320" y="26" width="22" height="146" />

      <rect x="378" y="20" width="66" height="20" />
      <rect x="400" y="20" width="22" height="152" />
      <rect x="378" y="152" width="66" height="20" />

      <path fill-rule="evenodd" d="M468 20H558C602 20 624 46 624 96C624 146 602 172 558 172H468V20ZM502 52V140H548C576 140 590 126 590 96C590 66 576 52 548 52H502Z" />
    </g>
  
    </g>
    
    <g fill="#f4f0e8">
      <rect x="28" y="20" width="30" height="152" />
      <rect x="103" y="20" width="30" height="152" />
      <polygon points="52,20 82,20 108,172 78,172" />

      <rect x="152" y="68" width="26" height="104" />
      <rect x="218" y="68" width="26" height="104" />
      <rect x="178" y="144" width="40" height="28" />

      <rect x="274" y="26" width="22" height="146" />
      <rect x="320" y="26" width="22" height="146" />

      <rect x="378" y="20" width="66" height="20" />
      <rect x="400" y="20" width="22" height="152" />
      <rect x="378" y="152" width="66" height="20" />

      <path fill-rule="evenodd" d="M468 20H558C602 20 624 46 624 96C624 146 602 172 558 172H468V20ZM502 52V140H548C576 140 590 126 590 96C590 66 576 52 548 52H502Z" />
    </g>
  
    <rect x="250" y="14" width="192" height="12" fill="#d6ff62" />
    <rect x="318" y="178" width="126" height="10" fill="#d6ff62" />
  
</svg>
