<svg xmlns="http://www.w3.org/2000/svg" viewBox="0 0 1024 1024" role="img" aria-label="NullID app icon">
  <rect width="1024" height="1024" rx="220" fill="#07090b" />
  <rect x="132" y="132" width="264" height="22" rx="8" fill="#d6ff62" />
  <rect x="390" y="834" width="180" height="18" rx="6" fill="#d6ff62" />
  <g transform="translate(106.40000000000003 82.16000000000003) scale(0.82)">
    
    <g transform="translate(14 16)">
      <path fill="rgba(214, 255, 98, 0.11)" fill-rule="evenodd" d="M188 128H648L792 272V896H188V128ZM264 204V820H716V308L612 204H264Z" />
      <rect x="188" y="164" width="248" height="44" fill="rgba(214, 255, 98, 0.11)" />
      <rect x="320" y="414" width="292" height="54" fill="rgba(214, 255, 98, 0.11)" />
      <rect x="320" y="530" width="216" height="48" fill="rgba(214, 255, 98, 0.11)" />
      <rect x="320" y="644" width="144" height="42" fill="rgba(214, 255, 98, 0.11)" />
    </g>
    <path fill="#f4f0e8" fill-rule="evenodd" d="M188 128H648L792 272V896H188V128ZM264 204V820H716V308L612 204H264Z" />
    <rect x="188" y="164" width="248" height="44" fill="#d6ff62" />
    <rect x="320" y="414" width="292" height="54" fill="#f4f0e8" />
    <rect x="320" y="530" width="216" height="48" fill="#f4f0e8" />
    <rect x="320" y="644" width="144" height="42" fill="#f4f0e8" />
  
  </g>
</svg>
