<svg xmlns="http://www.w3.org/2000/svg" viewBox="0 0 960 1024" role="img" aria-label="NullID brand mark">
  
    <g transform="translate(14 16)">
      <path fill="rgba(22, 19, 16, 0.12)" fill-rule="evenodd" d="M188 128H648L792 272V896H188V128ZM264 204V820H716V308L612 204H264Z" />
      <rect x="188" y="164" width="248" height="44" fill="rgba(22, 19, 16, 0.12)" />
      <rect x="320" y="414" width="292" height="54" fill="rgba(22, 19, 16, 0.12)" />
      <rect x="320" y="530" width="216" height="48" fill="rgba(22, 19, 16, 0.12)" />
      <rect x="320" y="644" width="144" height="42" fill="rgba(22, 19, 16, 0.12)" />
    </g>
    <path fill="#161310" fill-rule="evenodd" d="M188 128H648L792 272V896H188V128ZM264 204V820H716V308L612 204H264Z" />
    <rect x="188" y="164" width="248" height="44" fill="#5f7712" />
    <rect x="320" y="414" width="292" height="54" fill="#161310" />
    <rect x="320" y="530" width="216" height="48" fill="#161310" />
    <rect x="320" y="644" width="144" height="42" fill="#161310" />
  
</svg>
